<svg id='Artificial_Intelligence_24' width='24' height='24' viewBox='0 0 24 24' xmlns='http://www.w3.org/2000/svg' xmlns:xlink='http://www.w3.org/1999/xlink'><rect width='24' height='24' stroke='none' fill='#000000' opacity='0'/>


<g transform="matrix(0.42 0 0 0.42 12 12)" >
<g style="" >
<g transform="matrix(1 0 0 1 1.5 -14.5)" >
<path style="stroke: none; stroke-width: 1; stroke-dasharray: none; stroke-linecap: butt; stroke-dashoffset: 0; stroke-linejoin: miter; stroke-miterlimit: 4; fill: rgb(100,113,124); fill-rule: nonzero; opacity: 1;" transform=" translate(-25.5, -9.5)" d="M 29 14 L 22 14 C 21.448 14 21 13.552 21 13 C 21 12.448 21.448 12 22 12 L 28 12 L 28 6 C 28 5.448 28.447 5 29 5 C 29.553 5 30 5.448 30 6 L 30 13 C 30 13.552 29.553 14 29 14 z" stroke-linecap="round" />
</g>
<g transform="matrix(1 0 0 1 6 -4.5)" >
<path style="stroke: none; stroke-width: 1; stroke-dasharray: none; stroke-linecap: butt; stroke-dashoffset: 0; stroke-linejoin: miter; stroke-miterlimit: 4; fill: rgb(100,113,124); fill-rule: nonzero; opacity: 1;" transform=" translate(-30, -19.5)" d="M 32 27 C 31.447 27 31 26.553 31 26 L 31 15 C 31 14.449 30.552 14 30 14 L 28 14 C 27.447 14 27 13.552 27 13 C 27 12.448 27.447 12 28 12 L 30 12 C 31.654 12 33 13.346 33 15 L 33 26 C 33 26.553 32.553 27 32 27 z" stroke-linecap="round" />
</g>
<g transform="matrix(1 0 0 1 1 -3.5)" >
<path style="stroke: none; stroke-width: 1; stroke-dasharray: none; stroke-linecap: butt; stroke-dashoffset: 0; stroke-linejoin: miter; stroke-miterlimit: 4; fill: rgb(100,113,124); fill-rule: nonzero; opacity: 1;" transform=" translate(-25, -20.5)" d="M 27 24 L 23 24 C 22.448 24 22 23.552 22 23 C 22 22.448 22.448 22 23 22 L 26 22 L 26 18 C 26 17.448 26.447 17 27 17 C 27.553 17 28 17.448 28 18 L 28 23 C 28 23.552 27.553 24 27 24 z" stroke-linecap="round" />
</g>
<g transform="matrix(1 0 0 1 0.5 13.5)" >
<path style="stroke: none; stroke-width: 1; stroke-dasharray: none; stroke-linecap: butt; stroke-dashoffset: 0; stroke-linejoin: miter; stroke-miterlimit: 4; fill: rgb(100,113,124); fill-rule: nonzero; opacity: 1;" transform=" translate(-24.5, -37.5)" d="M 28 41 C 27.447 41 27 40.553 27 40 L 27 37 C 27 36.448 26.552 36 26 36 L 21 36 C 20.448 36 20 35.553 20 35 C 20 34.447 20.448 34 21 34 L 26 34 C 27.654 34 29 35.346000000000004 29 37 L 29 40 C 29 40.553 28.553 41 28 41 z" stroke-linecap="round" />
</g>
<g transform="matrix(1 0 0 1 9.5 2.5)" >
<path style="stroke: none; stroke-width: 1; stroke-dasharray: none; stroke-linecap: butt; stroke-dashoffset: 0; stroke-linejoin: miter; stroke-miterlimit: 4; fill: rgb(100,113,124); fill-rule: nonzero; opacity: 1;" transform=" translate(-33.5, -26.5)" d="M 35 32 L 29 32 C 27.346 32 26 30.654 26 29 L 26 23 C 26 22.448 26.447 22 27 22 C 27.553 22 28 22.448 28 23 L 28 29 C 28 29.552 28.448 30 29 30 L 35 30 C 35.552 30 36 29.552 36 29 L 36 24 C 36 22.346 37.346000000000004 21 39 21 L 40 21 C 40.553 21 41 21.448 41 22 C 41 22.552 40.553 23 40 23 L 39 23 C 38.448 23 38 23.449 38 24 L 38 29 C 38 30.654 36.654 32 35 32 z" stroke-linecap="round" />
</g>
<g transform="matrix(1 0 0 1 4 17)" >
<linearGradient id="SVGID_k2YFeuzVMIW77swZK4mMia_2" gradientUnits="userSpaceOnUse" gradientTransform="matrix(1 0 0 -1 0 48)" x1="26.586" y1="8.414" x2="29.414" y2="5.586">
<stop offset="0%" style="stop-color:rgb(79,229,255);stop-opacity: 1"/>
<stop offset="100%" style="stop-color:rgb(46,183,237);stop-opacity: 1"/>
</linearGradient>
<path style="stroke: none; stroke-width: 1; stroke-dasharray: none; stroke-linecap: butt; stroke-dashoffset: 0; stroke-linejoin: miter; stroke-miterlimit: 4; fill: url(#SVGID_k2YFeuzVMIW77swZK4mMia_2); fill-rule: nonzero; opacity: 1;" transform=" translate(-28, -41)" d="M 28 39 C 29.104 39 30 39.896 30 41 C 30 42.104 29.104 43 28 43 C 26.896 43 26 42.104 26 41 C 26 39.896 26.896 39 28 39" stroke-linecap="round" />
</g>
<g transform="matrix(1 0 0 1 17 -2)" >
<linearGradient id="SVGID_k2YFeuzVMIW77swZK4mMib_3" gradientUnits="userSpaceOnUse" gradientTransform="matrix(1 0 0 -1 0 48)" x1="39.586" y1="27.414" x2="42.414" y2="24.586">
<stop offset="0%" style="stop-color:rgb(79,229,255);stop-opacity: 1"/>
<stop offset="100%" style="stop-color:rgb(46,183,237);stop-opacity: 1"/>
</linearGradient>
<path style="stroke: none; stroke-width: 1; stroke-dasharray: none; stroke-linecap: butt; stroke-dashoffset: 0; stroke-linejoin: miter; stroke-miterlimit: 4; fill: url(#SVGID_k2YFeuzVMIW77swZK4mMib_3); fill-rule: nonzero; opacity: 1;" transform=" translate(-41, -22)" d="M 41 24 C 42.104 24 43 23.104 43 22 C 43 20.896 42.104 20 41 20 C 39.896 20 39 20.896 39 22 C 39 23.104 39.896 24 41 24" stroke-linecap="round" />
</g>
<g transform="matrix(1 0 0 1 8 2)" >
<linearGradient id="SVGID_k2YFeuzVMIW77swZK4mMic_4" gradientUnits="userSpaceOnUse" gradientTransform="matrix(1 0 0 -1 0 48)" x1="30.586" y1="23.414" x2="33.414" y2="20.586">
<stop offset="0%" style="stop-color:rgb(79,229,255);stop-opacity: 1"/>
<stop offset="100%" style="stop-color:rgb(46,183,237);stop-opacity: 1"/>
</linearGradient>
<path style="stroke: none; stroke-width: 1; stroke-dasharray: none; stroke-linecap: butt; stroke-dashoffset: 0; stroke-linejoin: miter; stroke-miterlimit: 4; fill: url(#SVGID_k2YFeuzVMIW77swZK4mMic_4); fill-rule: nonzero; opacity: 1;" transform=" translate(-32, -26)" d="M 32 28 C 33.104 28 34 27.104 34 26 C 34 24.896 33.104 24 32 24 C 30.896 24 30 24.896 30 26 C 30 27.104 30.896 28 32 28" stroke-linecap="round" />
</g>
<g transform="matrix(1 0 0 1 3 -6)" >
<linearGradient id="SVGID_k2YFeuzVMIW77swZK4mMid_5" gradientUnits="userSpaceOnUse" gradientTransform="matrix(1 0 0 -1 0 48)" x1="25.586" y1="31.414" x2="28.414" y2="28.586">
<stop offset="0%" style="stop-color:rgb(79,229,255);stop-opacity: 1"/>
<stop offset="100%" style="stop-color:rgb(46,183,237);stop-opacity: 1"/>
</linearGradient>
<path style="stroke: none; stroke-width: 1; stroke-dasharray: none; stroke-linecap: butt; stroke-dashoffset: 0; stroke-linejoin: miter; stroke-miterlimit: 4; fill: url(#SVGID_k2YFeuzVMIW77swZK4mMid_5); fill-rule: nonzero; opacity: 1;" transform=" translate(-27, -18)" d="M 27 20 C 28.104 20 29 19.104 29 18 C 29 16.896 28.104 16 27 16 C 25.896 16 25 16.896 25 18 C 25 19.104 25.896 20 27 20" stroke-linecap="round" />
</g>
<g transform="matrix(1 0 0 1 5 -17)" >
<linearGradient id="SVGID_k2YFeuzVMIW77swZK4mMie_6" gradientUnits="userSpaceOnUse" gradientTransform="matrix(1 0 0 -1 0 48)" x1="27.586" y1="42.414" x2="30.414" y2="39.586">
<stop offset="0%" style="stop-color:rgb(79,229,255);stop-opacity: 1"/>
<stop offset="100%" style="stop-color:rgb(46,183,237);stop-opacity: 1"/>
</linearGradient>
<path style="stroke: none; stroke-width: 1; stroke-dasharray: none; stroke-linecap: butt; stroke-dashoffset: 0; stroke-linejoin: miter; stroke-miterlimit: 4; fill: url(#SVGID_k2YFeuzVMIW77swZK4mMie_6); fill-rule: nonzero; opacity: 1;" transform=" translate(-29, -7)" d="M 29 9 C 30.104 9 31 8.104 31 7 C 31 5.896000000000001 30.104 5 29 5 C 27.896 5 27 5.896 27 7 C 27 8.104 27.896 9 29 9" stroke-linecap="round" />
</g>
<g transform="matrix(1 0 0 1 10.5 9.5)" >
<path style="stroke: none; stroke-width: 1; stroke-dasharray: none; stroke-linecap: butt; stroke-dashoffset: 0; stroke-linejoin: miter; stroke-miterlimit: 4; fill: rgb(100,113,124); fill-rule: nonzero; opacity: 1;" transform=" translate(-34.5, -33.5)" d="M 37 37 L 34 37 C 32.346000000000004 37 31 35.653999999999996 31 34 L 31 31 C 31 30.447 31.447 30 32 30 C 32.553 30 33 30.447 33 31 L 33 34 C 33 34.552 33.448 35 34 35 L 37 35 C 37.553 35 38 35.447 38 36 C 38 36.553 37.553 37 37 37 z" stroke-linecap="round" />
</g>
<g transform="matrix(1 0 0 1 13 12)" >
<linearGradient id="SVGID_k2YFeuzVMIW77swZK4mMif_7" gradientUnits="userSpaceOnUse" gradientTransform="matrix(1 0 0 -1 0 48)" x1="35.586" y1="13.414" x2="38.414" y2="10.586">
<stop offset="0%" style="stop-color:rgb(79,229,255);stop-opacity: 1"/>
<stop offset="100%" style="stop-color:rgb(46,183,237);stop-opacity: 1"/>
</linearGradient>
<path style="stroke: none; stroke-width: 1; stroke-dasharray: none; stroke-linecap: butt; stroke-dashoffset: 0; stroke-linejoin: miter; stroke-miterlimit: 4; fill: url(#SVGID_k2YFeuzVMIW77swZK4mMif_7); fill-rule: nonzero; opacity: 1;" transform=" translate(-37, -36)" d="M 37 34 C 38.104 34 39 34.896 39 36 C 39 37.104 38.104 38 37 38 C 35.896 38 35 37.104 35 36 C 35 34.896 35.896 34 37 34" stroke-linecap="round" />
</g>
<g transform="matrix(1 0 0 1 10.5 -7)" >
<path style="stroke: none; stroke-width: 1; stroke-dasharray: none; stroke-linecap: butt; stroke-dashoffset: 0; stroke-linejoin: miter; stroke-miterlimit: 4; fill: rgb(100,113,124); fill-rule: nonzero; opacity: 1;" transform=" translate(-34.5, -17)" d="M 37 18 L 32 18 C 31.447 18 31 17.552 31 17 C 31 16.448 31.447 16 32 16 L 37 16 C 37.553 16 38 16.448 38 17 C 38 17.552 37.553 18 37 18 z" stroke-linecap="round" />
</g>
<g transform="matrix(1 0 0 1 13 -7)" >
<linearGradient id="SVGID_k2YFeuzVMIW77swZK4mMig_8" gradientUnits="userSpaceOnUse" gradientTransform="matrix(1 0 0 -1 0 48)" x1="35.586" y1="32.414" x2="38.414" y2="29.586">
<stop offset="0%" style="stop-color:rgb(79,229,255);stop-opacity: 1"/>
<stop offset="100%" style="stop-color:rgb(46,183,237);stop-opacity: 1"/>
</linearGradient>
<path style="stroke: none; stroke-width: 1; stroke-dasharray: none; stroke-linecap: butt; stroke-dashoffset: 0; stroke-linejoin: miter; stroke-miterlimit: 4; fill: url(#SVGID_k2YFeuzVMIW77swZK4mMig_8); fill-rule: nonzero; opacity: 1;" transform=" translate(-37, -17)" d="M 37 15 C 38.104 15 39 15.896 39 17 C 39 18.104 38.104 19 37 19 C 35.896 19 35 18.104 35 17 C 35 15.896 35.896 15 37 15" stroke-linecap="round" />
</g>
<g transform="matrix(1 0 0 1 -9.5 0)" >
<linearGradient id="SVGID_k2YFeuzVMIW77swZK4mMih_9" gradientUnits="userSpaceOnUse" gradientTransform="matrix(1 0 0 -1 0 254)" x1="11.05" y1="247.244" x2="23.315" y2="208.066">
<stop offset="0%" style="stop-color:rgb(255,161,166);stop-opacity: 1"/>
<stop offset="100%" style="stop-color:rgb(242,68,114);stop-opacity: 1"/>
</linearGradient>
<path style="stroke: none; stroke-width: 1; stroke-dasharray: none; stroke-linecap: butt; stroke-dashoffset: 0; stroke-linejoin: miter; stroke-miterlimit: 4; fill: url(#SVGID_k2YFeuzVMIW77swZK4mMih_9); fill-rule: nonzero; opacity: 1;" transform=" translate(-14.5, -24)" d="M 24 9.75 C 24 7.127 21.873 5 19.25 5 C 16.837 5 14.866 6.806 14.562000000000001 9.136 C 10.831 9.814 8 13.073 8 17 C 8 17.279 8.015 17.554 8.042 17.826 C 6.169 19.643 5 22.183 5 25 C 5 27.821 6.173 30.365000000000002 8.052 32.183 C 8.02 32.451 8 32.723 8 33 C 8 36.665 10.818999999999999 39.668 14.405999999999999 39.97 C 15.171 41.751 16.939 43 19 43 C 21.761 43 24 40.761 24 38 C 24 37.617 24 10.438 24 9.75 z" stroke-linecap="round" />
</g>
<g transform="matrix(1 0 0 1 -5.44 -9)" >
<linearGradient id="SVGID_k2YFeuzVMIW77swZK4mMii_10" gradientUnits="userSpaceOnUse" gradientTransform="matrix(1 0 0 -1 0 254)" x1="14.806" y1="246.969" x2="29.064" y2="211.253">
<stop offset="0%" style="stop-color:rgb(255,97,129);stop-opacity: 1"/>
<stop offset="100%" style="stop-color:rgb(196,31,64);stop-opacity: 1"/>
</linearGradient>
<path style="stroke: none; stroke-width: 1; stroke-dasharray: none; stroke-linecap: butt; stroke-dashoffset: 0; stroke-linejoin: miter; stroke-miterlimit: 4; fill: url(#SVGID_k2YFeuzVMIW77swZK4mMii_10); fill-rule: nonzero; opacity: 1;" transform=" translate(-18.56, -15)" d="M 17.123 19 L 17.125 19 C 17.596 19 17.981 18.662 18.094 18.205 C 18.374000000000002 17.070999999999998 19.248 16.354 20.214000000000002 16.101999999999997 C 20.667 15.982999999999997 21.000000000000004 15.601999999999997 21.000000000000004 15.133999999999997 L 21.000000000000004 14.875999999999998 C 21.000000000000004 14.404999999999998 20.662000000000003 14.019999999999998 20.205000000000002 13.906999999999998 C 19.071 13.626999999999999 18.354000000000003 12.752999999999998 18.102 11.786999999999999 C 17.983 11.333 17.602 11 17.134 11 L 17.123 11 C 16.468 11 15.994000000000002 11.622 16.156000000000002 12.257 C 16.441000000000003 13.378 17.102000000000004 14.333 17.995 15 C 17.101000000000003 15.666 16.441000000000003 16.621 16.156000000000002 17.743 C 15.994 18.378 16.468 19 17.123 19 z" stroke-linecap="round" />
</g>
<g transform="matrix(1 0 0 1 -8.54 4.05)" >
<linearGradient id="SVGID_k2YFeuzVMIW77swZK4mMij_11" gradientUnits="userSpaceOnUse" gradientTransform="matrix(1 0 0 -1 0 254)" x1="8.959" y1="244.265" x2="23.711" y2="207.313">
<stop offset="0%" style="stop-color:rgb(255,97,129);stop-opacity: 1"/>
<stop offset="100%" style="stop-color:rgb(196,31,64);stop-opacity: 1"/>
</linearGradient>
<path style="stroke: none; stroke-width: 1; stroke-dasharray: none; stroke-linecap: butt; stroke-dashoffset: 0; stroke-linejoin: miter; stroke-miterlimit: 4; fill: url(#SVGID_k2YFeuzVMIW77swZK4mMij_11); fill-rule: nonzero; opacity: 1;" transform=" translate(-15.46, -28.05)" d="M 18.912 24 L 18.912 24 C 18.419 24 18.017 24.367 17.927 24.852 C 17.648 26.36 16.62 26.948 15.687 26.990000000000002 C 14.628 26.485000000000003 13.431 26.161 12.100999999999999 26.046000000000003 C 11.513 25.996 11 26.453 11 27.043 L 11 27.043 C 11 27.55 11.38 27.994999999999997 11.886 28.032 C 14.652 28.236 16.608 29.426 17.718 31.579 C 17.945 32.018 18.48 32.2 18.941 32.023 L 18.941 32.023 C 19.503 31.807000000000002 19.747 31.142000000000003 19.464 30.610000000000003 C 19.011 29.759000000000004 18.441 29.021000000000004 17.770999999999997 28.396000000000004 C 18.801 27.794000000000004 19.635999999999996 26.729000000000003 19.906999999999996 25.142000000000003 C 20.009 24.543 19.519 24 18.912 24 z" stroke-linecap="round" />
</g>
</g>
</g>
</svg>